<?xml version="1.0" encoding="UTF-8"?><svg id="Calque_1" xmlns="http://www.w3.org/2000/svg" viewBox="0 0 841.89 595.28"><defs><style>.cls-1{fill:#3c3c3b;}</style></defs><path class="cls-1" d="m358.68,311.78c1.22-1.16,2.46-2.17,3.49-3.36,2.42-2.78,5.35-4.89,8.75-6.1,4.99-1.78,9.97-1.83,14.53,1.49,3.14,2.28,5.57,5.1,7.04,8.72.21.53.53,1.02.88,1.68.57-.54,1.04-.9,1.42-1.34,2.08-2.45,4.61-4.41,7.09-6.41.54-.44,1.15-.79,1.72-1.18,3-2.02,6.4-2.62,9.91-2.91,4.49-.37,8.17,1.5,11.51,4.17,4.28,3.41,6.32,8.09,7.2,13.38.8,4.82.19,9.56-.85,14.25-2.06,9.24-4.09,18.49-6.44,27.67-1.39,5.41-2.44,10.89-3.67,16.34-1.25,5.54-2.5,11.09-3.79,16.62-.24,1.05-.7,2.05-1.02,2.96-3.07.63-9.68.72-12.04.21-.59-.72-.28-1.51-.11-2.27.72-3.31,1.41-6.63,2.21-9.92,1.83-7.55,3.77-15.08,5.58-22.64,2.2-9.21,4.65-18.36,6.22-27.71.59-3.54,1.16-7.08,1.38-10.67.03-.5.09-.99.1-1.49.13-6.69-6.86-8.9-11-6.39-.68.41-1.38.84-1.94,1.39-2.29,2.23-4.52,4.52-6.11,7.33-2.71,4.77-5.36,9.58-7.28,14.74-1.08,2.89-1.95,5.86-2.86,8.81-2.45,7.91-4.23,15.99-6.26,24.01-1.25,4.92-2.62,9.82-3.96,14.71-.48,1.75-.72,1.95-2.46,1.99-3.09.08-6.19.13-9.28.12-2.34,0-2.7-.45-2.14-2.65,1.07-4.25,2.25-8.48,3.29-12.74,2.22-9.1,4.84-18.1,6.71-27.29,1.29-6.35,2.77-12.66,4.12-19,.37-1.75.66-3.53.87-5.31.17-1.48.21-2.98-.38-4.43-1.32-3.28-5.15-4.89-8.43-3.53-2,.83-3.56,2.23-4.91,3.83-3.81,4.51-7.01,9.42-9.34,14.88-1.06,2.48-2.21,4.91-3.17,7.43-3.74,9.78-6.78,19.79-9.42,29.92-1.21,4.63-2.53,9.23-3.73,13.86-.95,3.66-1.85,7.34-2.69,11.04-.28,1.26-.89,1.96-2.16,2.06-3.38.27-6.76.56-10.15.27-1.43-.12-1.93-.82-1.56-2.26,1.03-4.05,2.14-8.09,3.23-12.12,2.56-9.53,5.18-19.04,7.69-28.58,2.15-8.19,4.16-16.42,6.24-24.63.69-2.7,1.45-5.38,2.12-8.09.54-2.2.23-4.35-.62-6.44-.89-2.18-2.59-3.22-4.83-3.45-2.26-.24-4.37.33-6.3,1.49-7.88,4.71-11.54,11.84-11.89,20.85-.08,1.95.61,3.72,1.2,5.52.28.84.57,1.68.89,2.65-.47.4-.85.91-1.35,1.11-2.59,1.02-5.21,2.01-7.84,2.92-1.26.44-1.89.11-2.36-1.09-2.93-7.5-3.57-15.07-.8-22.78,1.46-4.05,3.24-7.93,5.64-11.52,1.06-1.59,3.85-4.45,5.45-5.52,2.73-1.84,3.46-2.52,6.47-4.04,4.58-2.39,9.04-2.91,13.77-2.15,7.16,1.15,12.49,4.97,16.02,11.3.05.08.16.12.4.32Z"/><path class="cls-1" d="m515.69,371.09c-.06,1.12-.65,2.04-1.29,2.93-3.03,4.2-6,8.44-9.12,12.58-2.22,2.95-4.81,5.6-7.67,7.95-4.88,4.01-10.47,5.23-16.53,3.55-3.11-.86-5.78-2.65-7.65-5.42-.49-.73-.99-1.45-1.59-2.32-.67.57-1.25.95-1.67,1.46-1.88,2.32-4.45,3.51-7.06,4.8-3.17,1.57-6.36,1.57-9.6.96-2.53-.47-5.03-1.15-7.28-2.53-4.49-2.76-6.64-7.04-7.73-11.95-1.09-4.94-.69-9.91.11-14.86,1.31-8.17,4.2-15.76,8.52-22.8,1.67-2.73,3.72-5.13,6.06-7.34,4.55-4.31,14.65-5.7,19.75-1.78,1.34,1.03,2.74,1.97,4.11,2.96.39.28.77.59,1.25.96,1.41-1.62,1.36-3.81,2.5-5.38,3.11-.64,9.77-.83,12.26-.35.73,1.19.35,2.43,0,3.67-1.03,3.54-2.14,7.06-3.08,10.62-1.77,6.73-3.69,13.44-4.72,20.35-.44,2.95-1.13,5.85-1.65,8.79-.19,1.07-.26,2.17-.3,3.26-.1,3.66,3.37,5.37,6.51,4.2,1.27-.48,2.5-1.3,3.49-2.23,1.51-1.43,2.93-3.01,4.14-4.7,2.99-4.22,5.84-8.55,8.75-12.84.22-.32.7-.93.73-1.03,2.81,1.19,7.05,4.29,8.77,6.47Zm-47.73-23.92c-2.28-.92-4.5-.76-6.55.62-.82.55-1.59,1.22-2.24,1.96-1.9,2.18-3.43,4.62-4.71,7.23-2.13,4.34-3.24,8.98-4.14,13.67-.3,1.56-.43,3.15-.53,3.94,0,3,.2,5.17,1.04,7.24.82,2.04,2.42,3.14,4.61,3.14,1.33,0,2.55-.4,3.66-1.12,2.03-1.31,3.77-2.92,5.11-4.95,1.86-2.83,3.52-5.77,4.75-8.95,1.58-4.08,3.46-8.05,4.38-12.37.96-4.5-1.13-8.69-5.38-10.42Z"/><path class="cls-1" d="m573.65,367.71c-1.01,2.01-1.94,3.82-3.04,5.52-4.01,6.17-7.97,11.41-12.11,16-1.49,1.66-3.2,3.29-5.21,4.99-2.22,1.88-5,3.1-8.27,3.63-.51.08-1.02.12-1.52.12-1.65,0-3.23-.45-4.71-1.36-1.33-.81-2.71-1.66-3.88-2.89-2.26-2.38-3.39-5.4-3.54-9.5-.23-5.98.51-12.18,2.2-18.43.7-2.58,1.42-5.15,2.15-7.73.47-1.65.93-3.3,1.39-4.95.1-.36.16-.74.23-1.18.02-.15.05-.31.08-.48-1.21-.32-2.34-.28-3.43-.24-.65.02-1.26.04-1.89,0-1.21-.09-2.42-.2-3.68-.31l-1.6-.14c-.27.58-.53,1.15-.8,1.73-.66,1.42-1.32,2.85-1.96,4.28-2.03,4.61-3.17,6.67-5.41,10.02l-2.16,3.58c-.62.94-1.19,2.21-1.19,2.21l-1.09-.93-8.03-4.3.04-.22c.13-.71-.07-1.33.29-1.92.59-.97.94-1.92,1.3-2.68l1.38-2.94c1.53-3.26,3.06-6.52,4.58-9.79.34-.73.65-1.48.97-2.26.12-.29.25-.59.37-.89l-1.23-1.01c-4.21-3.4-6.62-6.92-7.61-11.05-1.4-5.89.27-10.85,4.96-14.75,3.7-3.07,8.07-3.66,12.98-1.76,2.49.96,4.61,2.54,6.31,4.7,1.79,2.27,2.59,5.09,2.38,8.37-.07,1.11-.33,2.21-.58,3.27-.09.39-.18.77-.26,1.16-.12.59-.27,1.17-.43,1.77-.05.21-.11.42-.16.64,1,.51,2.03.55,3.12.59l.36.02c4.06.19,8.05-.26,12.47-.82,2.79-.35,4.9-.25,6.84.35l.15.04.05.14c.49,1.27.02,2.29-.39,3.19-.09.19-.17.38-.25.57-.44,1.09-.93,2.18-1.4,3.24-.42.93-.83,1.85-1.22,2.79-2.72,6.58-4.56,13.59-6.08,19.65-.77,3.08-1.38,6.26-1.97,9.33l-.29,1.48c-.19.96-.24,1.96-.16,2.89.1,1.1.51,1.92,1.17,2.35.66.43,1.57.48,2.62.13,1.3-.43,2.5-1.26,3.77-2.61,2.97-3.16,5.6-6.84,8.28-11.58,1.32-2.34,2.74-4.68,4.1-6.94l1.09-1.81c.22-.36.48-.68.74-.99.11-.14.23-.28.34-.42l.12-.16.19.04c.13.03.25.04.37.06.26.04.51.07.71.22l.65.48c2,1.46,4.08,2.97,6.07,4.52,1.21.94,1.39,1.66.73,2.97Zm-52.67-38.77c-.06-.46-.35-1.03-.85-1.65-.44-.55-1.04-.85-1.69-.85-.1,0-.2,0-.3.02-.78.11-1.45.67-1.78,1.47-.6,1.46-.59,2.93.03,4.38.66,1.55,1.75,2.48,3.51,2.98,1.02-1.92,1.36-3.94,1.07-6.34Z"/><path class="cls-1" d="m632.89,369.84c-.26.64-.42,1.46-.87,2.07-3.93,5.4-7.41,11.13-11.91,16.1-1.27,1.4-2.61,2.75-3.96,4.08-2.93,2.85-6.43,4.67-10.43,5.52-1.99.42-3.93.35-5.9-.27-3.98-1.27-7.39-3.5-10.51-6.16-5.93-5.05-10.43-11.23-13.92-18.17-.25-.49-.57-.95-1.06-1.77-1.41,4.68-2.03,9.12-3.17,13.44-1.14,4.32-2.15,8.68-3.24,13.08-3.99.23-7.85.35-11.71-.09-.35-.04-.67-.37-1.05-.59,1.06-4.43,2.11-8.78,3.13-13.14.7-3,1.33-6.02,2.04-9.02.85-3.59,1.81-7.15,2.63-10.75,2.25-9.82,5.46-19.37,7.99-29.11,2.41-9.26,4.67-18.56,7.05-27.83.69-2.69,1.38-5.39,2.49-7.88,2.68-.65,9.92-.46,12.95.35-.07.64-.04,1.33-.22,1.96-1.86,6.62-3.76,13.23-5.62,19.85-.57,2.01-1.05,4.05-1.59,6.08-1.95,7.22-3.91,14.43-5.85,21.65-.23.85-.38,1.72-.55,2.51.67.53,1.07.12,1.45-.11,7.23-4.32,13.77-9.52,19.73-15.46,1.34-1.33,2.48-2.86,3.82-4.2,1.34-1.35,1.89-1.41,3.38-.39,2.37,1.63,4.79,3.22,6.95,5.41-.55,1.63-1.7,2.91-2.85,4.08-6.01,6.15-12.32,11.95-19.63,16.56-2.87,1.81-5.79,3.53-8.67,5.31-.24.15-.4.43-.72.77.5.93.99,1.89,1.51,2.84,3.17,5.72,7.26,10.72,11.98,15.22,2.25,2.14,4.82,3.48,8.08,3.19,1.34-.12,2.52-.42,3.62-1.2,2.48-1.75,4.5-3.95,6.22-6.41,2.96-4.25,5.84-8.56,8.75-12.85.27-.4.59-.77.86-1.12,2.39.92,6.42,3.88,8.81,6.47Z"/><path class="cls-1" d="m679.35,367.1c-.01,1.06-.6,1.99-1.23,2.87-2.9,4.05-5.69,8.2-8.78,12.1-3.48,4.39-7.46,8.28-12.38,11.13-3.5,2.03-7.14,3.51-11.17,4.02-4.5.57-8.96.73-13.27-1-1.38-.55-2.85-1.07-4-1.96-5.94-4.61-9.74-10.49-10.1-18.2-.41-8.83,1.4-17.24,5.03-25.28,1.69-3.74,3.7-7.28,6.14-10.59,1.56-2.12,3.42-3.91,5.48-5.47,2.46-1.87,5.46-2.39,8.42-2.85,3.46-.53,6.69.19,9.71,2.08,1.87,1.18,3.66,2.35,5.03,4.15,3.56,4.66,4.28,11.05,1.76,16.35-1.65,3.48-3.92,6.47-6.82,8.99-.75.65-1.55,1.26-2.41,1.75-4.61,2.64-9.49,4.63-14.65,5.92-1.74.43-3.47.9-5.39,1.41-.47,1.61-.31,2.98.05,4.34.51,1.95,1.38,3.75,2.59,5.35,1.52,2.01,3.57,3.14,6.11,3.28,4.53.25,8.69-.95,12.51-3.35,4.52-2.85,8.44-6.33,11.37-10.87,1.94-3.01,4.04-5.93,6.07-8.88.39-.56.8-1.11,1.17-1.62,2.27.7,6.37,3.66,8.78,6.33Zm-46.35-7.7c4.64-.21,10-2.2,12.96-4.76.82-.71,1.52-1.56,2.25-2.37,1.19-1.31,1.28-2.85.89-4.48-.59-2.46-2.7-3.75-5.19-3.19-1.84.42-3.2,1.58-4.38,2.93-2.99,3.4-4.99,7.36-6.52,11.86Z"/><path class="cls-1" d="m767.85,317.04c-1.65,2.73-6.27,8.84-7.77,10.28-.5-.38-1.05-.73-1.53-1.17-4.6-4.14-9.99-6.89-15.79-8.72-7.53-2.38-13.2-4.09-21.1-3.42-4.64.39-11.32,1.82-15.87,2.79-3.9.83-7.76,1.83-11.62,2.82-.13.54-.25,1.08-.34,1.62-.01,0-.03,0-.04,0-.28.84-.53,1.49-.71,2.15-1.66,6.16-3.34,12.3-4.95,18.47-1.74,6.65-3.42,13.31-5.1,19.98-.27,1.06-.44,2.14-.64,3.21-.78,4.21-1.59,8.41-2.32,12.62-.19,1.07-.26,2.2-.13,3.27.37,3.11,2.88,4.44,5.65,3.07.62-.31,1.25-.68,1.72-1.17,1.77-1.88,3.66-3.7,5.17-5.78,3.04-4.19,5.85-8.54,8.77-12.82.22-.32.48-.61.7-.88,2.31.82,6.18,3.63,8.8,6.41-.25.63-.39,1.45-.83,2.06-3.82,5.35-7.33,10.93-11.68,15.88-1.25,1.42-2.64,2.72-3.95,4.09-2.41,2.51-5.34,4.16-8.64,5.15-6.98,2.09-13.72-1.45-16.56-6.78-2.16-4.07-2.79-8.28-2.33-12.72.3-2.97.75-5.93,1.31-8.86,1.79-9.3,4.46-18.38,7.12-27.47,1.26-4.3,2.33-8.66,3.47-12.99.41-1.54.81-3.08,1.17-4.64.01-.06.02-.13.03-.2-2.87.58-6.28,1.04-11.18,1.33-11.55.68-20.03-.43-26.34-1.79-15.65-3.37-25.58-11.33-25.34-26.39,3.71-.83,7.45-1.05,11.26-.8,2.85,12.37,10.93,15.64,21.99,16.33,7.17.45,22.3-1.09,33.14-3.3,1.04-3.34,2.03-6.54,3.04-9.8,4.29-.27,8.42-.59,12.45-.26.85.76.72,1.54.5,2.32-.38,1.36-.77,2.73-1.15,4.09,2.46-.6,4.81-1.15,6.42-1.53,6.89-1.6,21.69-2.19,23.36-2.04,1.76.15,3.55.17,5.26.54,3.45.74,6.93,1.44,10.26,2.59,4.21,1.45,8.28,3.33,12.41,5.03,3.81,1.57,7.24,3.83,10.64,6.13.5.34.87.87,1.26,1.28Z"/><path class="cls-1" d="m299.84,314.93c-.48.38-.94.89-1.52,1.21-3.94,2.16-7.94,4.18-12.25,5.51-2.48.76-4.96,1.51-7.4,2.37-4.45,1.57-9.11,2.14-13.73,2.9-3.27.53-6.54.53-9.84.51-5.32-.03-10.52-.84-15.65-2.1-6-1.48-11.97-3.06-17.7-5.47-2.29-.96-4.66-1.75-7.02-2.55-7.27-2.46-14.39-5.38-21.98-6.79-.97-.18-1.93-.38-3.04-.6-.33.74-.69,1.32-.87,1.96-1.91,6.63-4.48,13.02-7.17,19.35-2.15,5.06-4.76,9.91-8.35,14.12-2.54,2.98-5.55,5.47-9.28,6.87-2.05.77-4.13,1.57-6.26,1.99-5.94,1.16-11.58-.1-16.66-3.19-3.59-2.18-5.82-5.69-7.08-9.72-1.61-5.13-1.46-10.2.42-15.26,2.24-6.03,5.84-11.09,10.58-15.38,1.48-1.34,2.88-2.78,4.47-3.98,1.74-1.32,3.57-2.57,5.5-3.58,5.4-2.85,11.06-5.06,17.14-5.98,1.28-.19,2.57-.36,3.86-.4,1.13-.03,1.98-.42,2.33-1.49.68-2.07,1.26-4.17,1.88-6.27.02-.06-.11-.15-.3-.39-.46.15-1.02.26-1.52.49-4.72,2.2-9.63,2.44-14.63,1.37-1.33-.29-2.67-.84-3.85-1.54-6.1-3.66-9.79-9.22-12.09-15.81-.56-1.6-1.16-3.19-1.59-4.82-.91-3.5-1.08-7.1-.86-10.69.65-10.46,3.28-20.41,7.68-29.94,2.53-5.48,5.61-10.55,9.39-15.23,2.96-3.68,6.49-6.77,10.14-9.7,2.82-2.27,6.04-3.98,9.52-4.92,5.89-1.59,11.65-1.41,16.87,2.29.25.17.48.36.74.51,5.12,2.95,7.67,7.63,8.88,13.22.85,3.94.88,7.9.54,11.92-1.73,1.31-3.84,1.12-5.7,1.71-1.88.59-3.83.98-5.96,1.27-.12-.76-.27-1.31-.3-1.87-.05-1.3-.08-2.59-.06-3.89.04-2.69-.93-5.03-2.19-7.36-1.22-2.26-3.11-3.59-5.35-4.55-1.42-.6-2.96-.47-4.43-.2-1.67.31-3.24.94-4.69,1.87-4,2.57-7.24,5.91-10.12,9.66-6.89,8.94-10.56,19.18-11.87,30.26-.86,7.32.38,14.32,4.71,20.53,2.63,3.77,7.57,5.38,11.88,3.82,2.87-1.04,5.28-2.75,7.37-4.97,2.76-2.94,4.84-6.33,6.83-9.8.59-1.02.97-2.19,1.3-3.33,1-3.55,1.93-7.12,2.9-10.69.07-.28.24-.53.44-.99.42,0,.91-.08,1.37.01,2.73.57,5.46,1.17,8.18,1.78.48.11.95.3,1.41.49.89.38,1.19.95.91,1.91-.75,2.58-1.57,5.15-2.31,7.73-2.03,7.09-4.05,14.19-6.06,21.29-1.25,4.41-2.48,8.82-3.7,13.24-.23.85-.34,1.73-.53,2.73,1.94.45,3.75.89,5.58,1.3,6.53,1.47,12.89,3.47,19.2,5.69,5.17,1.82,10.31,3.78,15.56,5.32,9.5,2.79,19.16,4.73,29.17,4.28,7.25-.33,14.23-1.7,20.85-4.76,2.45-1.13,4.86-2.3,7-3.99.61-.48,1.36-.79,2.03-1.17,1.58,1.81,6.31,9.5,7.31,11.9Zm-126.27-4.48c-.33-.12-.52-.27-.69-.24-.98.14-1.97.25-2.93.49-7.62,1.89-14.36,5.23-19.39,11.51-3.01,3.76-4.47,7.89-3.69,12.76.87,5.38,5.96,7.66,10.26,5.57,3.66-1.77,6.29-4.5,8.21-7.97,3.68-6.65,6.19-13.77,8.22-21.07.09-.34.01-.74.01-1.05Z"/><path class="cls-1" d="m283.34,263.08c-.69,4.12-8.69,10.22-12.83,11.45-5.76,1.71-11.58,1.63-17.32-.54-.47.58-.91.99-1.19,1.48-2.51,4.5-6.08,8.11-9.8,11.58-1.09,1.02-2.16,2.14-3.44,2.85-3.51,1.95-7.19,3.32-11.39,2.75-2.91-.4-5.67-1.23-8.24-2.54-4.49-2.29-6.81-6.26-7.86-11.06-.84-3.83-.92-7.73-.52-11.6.52-5.06,1.27-10.09,3.14-14.88.73-1.85,1.31-3.76,2.15-5.56,2.8-6.04,6.72-11.25,11.68-15.72,6.44-5.81,16.15-6.55,23.87.4,3.87,3.48,5.93,7.9,6.96,12.93,1.02,4.98.64,9.91-.35,14.84-.17.86-.66,1.69-.12,2.84,2.92,1.32,6.06.97,9.19.31,3.34-.7,5.53-3,7.53-5.97,3.03,2.34,6.09,4.03,8.54,6.44Zm-41.37,5.93c-2-1.53-3.92-2.92-5.75-4.41-1.85-1.51-3.34-3.4-4.76-5.31-1.39-1.87-2.59-3.88-4.05-6.08-.42.88-.82,1.46-.98,2.09-.81,3.18-1.67,6.35-2.29,9.56-.37,1.94-.35,3.95-.44,5.94-.09,2.04.57,3.94,1.35,5.76,1.03,2.4,2.95,3.36,5.55,2.92,1.38-.23,2.74-.63,3.84-1.52,3.04-2.46,5.35-5.52,7.5-8.95Zm5.64-18.15c.11-3.43-1.42-6.12-3.73-8.46-.96-.97-2.18-1.34-3.54-1.22-1.29.11-1.94.65-2.37,1.9-.44,1.29-.35,2.53.23,3.76,1.33,2.79,2.84,5.47,5.21,7.55,1.03.9,1.92,2,3.53,2.64.66-2.19.61-4.17.67-6.15Z"/><path class="cls-1" d="m350.22,263.93c.14,1.04-.46,1.89-.94,2.74-2.55,4.51-5.31,8.9-8.54,12.96-2.98,3.74-5.88,7.55-9.44,10.81-2.5,2.29-5.31,3.91-8.53,4.77-4.22,1.13-9.67-.02-13.14-4.42-1.71-2.17-2.64-4.66-3.07-7.36-.54-3.39-.36-6.76.36-10.09,1.11-5.17,2.3-10.31,3.39-15.48.68-3.22,1.26-6.45,1.78-9.7.2-1.27.25-2.6.12-3.88-.42-4.25-4.86-6.89-8.86-5.35-2.12.81-3.75,2.29-5.17,3.97-3.82,4.51-7.04,9.42-9.39,14.87-1.18,2.74-2.33,5.5-3.52,8.25-1.97,4.6-3.26,9.41-4.48,14.24-.78,3.08-1.41,6.2-2.09,9.31-.4,1.81-1.08,2.25-2.96,2.09-2.78-.24-5.56-.37-8.34-.54-.3-.02-.6.04-.9.02-1.26-.07-1.78-.64-1.56-1.95.28-1.67.64-3.33,1.05-4.97,1.37-5.51,2.73-11.02,4.16-16.52,2.94-11.28,5.68-22.62,9.1-33.78.88-2.86,1.62-5.75,2.36-8.65.28-1.12.9-1.82,2.02-1.88,3.67-.21,7.33-.75,11.01-.13.08.01.15.12.33.26.26,2.75-1.61,5.2-1.61,8.34.63-.43,1.01-.68,1.38-.95,1.3-.92,2.6-1.82,3.89-2.76,2.62-1.9,5.66-2.38,8.76-2.59,2.11-.14,4.24.22,6.1,1.19,4.29,2.23,7.53,5.52,9.34,10.1,1.92,4.86,2.27,9.9,1.5,15.01-.41,2.76-1.06,5.48-1.7,8.2-.8,3.39-1.76,6.75-2.56,10.15-.53,2.22-1.02,4.47-1.29,6.74-.14,1.14.08,2.39.38,3.52.4,1.47,1.47,2.03,2.99,1.81,1.76-.25,3.21-1.18,4.35-2.46,1.79-2,3.63-4.01,5.12-6.24,2.21-3.31,4.16-6.79,6.18-10.22,1.16-1.96,2.27-3.96,3.68-5.7,2.26.71,6.29,3.64,8.72,6.28Z"/><path class="cls-1" d="m440.2,266.95c-1.04,2.88-2.58,4.99-4.97,6.73-4.28,3.12-5.18,3.69-10.28,4.3-1.86.23-7.44.71-9.73-.08-.13.54-.1,2.34-.13,2.72-.46,5.16-2.65,9.58-6.08,13.34-2.29,2.51-4.94,4.59-8.26,5.73-4.28,1.47-8.29.71-12.06-1.43-2.43-1.38-4.39-3.27-5.81-5.85-.75-1.01-1.33-1.99-1.78-2.94-3.67,1.44-8.81,2.37-12.13,2.79-4.5.57-11.69.24-16-1.49-1.38-.55-2.85-1.07-4-1.97-5.94-4.61-9.74-10.49-10.1-18.2-.41-8.83,1.4-17.24,5.03-25.28,1.69-3.74,3.7-7.28,6.14-10.59,1.56-2.11,3.41-3.9,5.48-5.47,2.46-1.87,5.46-2.39,8.42-2.85,3.46-.53,6.69.19,9.71,2.08,1.87,1.18,3.66,2.35,5.03,4.15,3.56,4.66,4.28,11.05,1.76,16.35-1.65,3.48-3.92,6.47-6.82,8.99-.75.65-1.55,1.26-2.41,1.75-4.61,2.64-9.49,4.63-14.65,5.92-1.74.43-3.47.9-5.38,1.4-.47,1.61-.31,2.98.05,4.34.51,1.95,1.27,3.84,2.59,5.35,6.1,6.94,16.83,4.21,20.65,1.81,4.47-2.82,8.64-8.43,14.7-11.38.06-.03.12-.07.19-.1,0,0,.01,0,.02,0,0,0,0,0,.01,0,2.93-1.52,6.24-2.61,9.29-3.34.51-.12,1.04-.1,1.58-.08-1.11-2.51-2.36-4.95-3.76-7.33-2.12-3.59-4.17-7.25-5.56-11.22-1.24-3.54-1.96-7.19-1.45-10.87.71-5.11,3.09-9.39,7.45-12.41,1.77-1.22,3.72-1.87,5.8-2.22,6.54-1.12,12.21.53,16.99,5.23,1.18,1.16,1.91,2.53,2.5,4.01,1.69,4.2,1.67,8.57,1.15,12.96-.1.85-.56,1.66-.83,2.42-2.91.2-9.53-1.24-12.41-2.69-.03-1.41.36-2.84.56-4.3.16-1.17.31-2.4.13-3.56-.51-3.35-3.75-4.65-6.54-2.71-1.79,1.24-2.62,2.98-2.5,5.12.06.98.31,1.97.65,2.89.84,2.23,1.63,4.47,2.92,6.53.95,1.51,1.54,3.23,2.32,4.84,1.05,2.15,2.13,4.28,3.21,6.42,1.3,2.59,2.99,9.03,3.81,8.85,4.39,1.01,9.37.84,12.79-1.37.82-.53,1.55-1.23,2.26-1.92.56-.55,1.02-1.2,1.75-2.08,3.21,2.14,6.15,4.12,8.69,6.72Zm-86.73-13.01c4.64-.21,10-2.2,12.96-4.76.82-.71,1.52-1.56,2.25-2.37,1.19-1.31,1.28-2.85.89-4.48-.59-2.46-2.7-3.75-5.19-3.19-1.84.41-3.2,1.58-4.38,2.93-2.99,3.4-4.98,7.36-6.52,11.86Zm48.94,20.83c-2.65-.44-5.85-.61-7.84.86-.61.45-3.21,1.6-4.04,5.3-.83,3.7.23,6.55,3.55,7.63,3.16,1.03,5.15.66,6.57-.47,1.69-1.35,2.47-3.57,2.84-5.69.37-2.12.21-4.49-1.08-7.63Z"/><path class="cls-1" d="m275.33,377.05c-.11,2.37-.28,4.89-1.06,7.35-.36,1.15-.77,2.44-1.4,3.62-1.02,1.88-2.32,4.05-4.22,5.86-.3.29-.59.58-.88.87l-.13.13c-1.06,1.07-2.38,1.62-3.65,2.05-1.73.59-3.36,1.08-5.49,1.08-.19,0-.38,0-.58-.01-.15,0-.41,0-.7,0-.25,0-.52,0-.72,0-.38,0-.78,0-1.2-.05-.99-.14-1.35-.5-1.46-1.48-.04-.37-.09-.75-.14-1.12-.12-.98-.25-2-.31-3.01-.08-1.54-.13-3.11-.17-4.63-.02-.72-.04-1.44-.06-2.16-.03-.84-.06-1.67-.09-2.51-.06-1.58-.12-3.17-.16-4.75-.04-1.73-.09-3.74-.07-5.72.03-2.97.07-5.94.12-8.91.02-1.59.05-3.17.07-4.76,0-.27-.02-.54-.05-.88-.11-1.14.26-1.6,1.42-1.73.79-.09,1.5-.17,2.22-.2,1.48-.06,3.42-.07,5.39.46,2.07.56,3.97,1.53,5.62,2.88,1.51,1.23,2.74,2.5,3.75,3.86,1.57,2.12,2.64,4.37,3.19,6.68.61,2.59.86,4.89.76,7.05Zm-6.8-4.75l-.03-.1c-.12-.37-.27-.79-.31-1.25-.11-1.3-.8-2.39-1.52-3.54l-.25-.41c-.71-1.15-1.72-2.25-3.08-3.37-1-.81-2.21-1.24-3.82-1.35,0,0-.02,0-.03,0v.02c-.04.85-.07,1.68-.06,2.5.01,1.69.04,3.38.06,5.07.01,1.17.03,2.35.04,3.52,0,.87.01,1.75.02,2.62,0,1.14.01,2.29.03,3.43.03,2.3.07,4.59.12,6.89.04,1.77.09,3.57.16,5.52.08-.02.16-.04.24-.06,1.63-.54,2.88-1.22,3.93-2.16,1.39-1.23,2.4-2.59,3.1-4.17,1.38-3.09,1.78-6.36,1.96-8.88-.07-1.5-.13-2.93-.58-4.27Z"/><path class="cls-1" d="m304.17,358.8c-.02.5-.05,1-.08,1.49-.04.54-.07,1.1-.09,1.64-.03,1.12-.03,2.25-.04,3.37v1.46c-.02.81-.02,1.61-.03,2.42-.01,1.83-.02,3.72-.07,5.59-.07,2.53-.19,5.11-.3,7.59l-.04.77c-.12,2.51-.44,4.79-1,6.97-.49,1.9-1.51,3.65-3.04,5.19-1.76,1.78-4.05,2.75-6.62,2.79-.17,0-.35,0-.53,0-.37,0-.75-.01-1.14-.06-1.96-.23-3.63-1.2-4.98-2.89-1.48-1.85-2.25-3.99-2.76-5.65-.4-1.3-.63-2.62-.81-3.76-.23-1.42-.26-2.8-.27-4.34l-.02-2.31c-.02-1.69-.03-3.38-.04-5.07,0-.48,0-.97.01-1.45,0-.52.02-1.05.01-1.57,0-.65-.03-1.3-.05-1.96-.02-.64-.04-1.27-.04-1.91v-.73c-.04-2.42-.07-4.92-.07-7.39,0-1.62.49-2.1,2.17-2.15.86-.02,1.73-.02,2.58-.02h.35c.2,0,.38.04.52.07l.09.02c.59.11,1,.55,1.07,1.15.02.22.04.45.03.7-.04,2.99-.08,5.99-.12,8.98v1.04s.03,0,.03,0v.75c-.02,1.01-.04,2.02-.05,3.03-.04,2.34-.08,4.75-.04,7.12.03,2.1.22,4.17.45,6.46.06.64.24,1.28.43,1.96.06.21.12.42.17.63.17.67.55,1.29,1.09,1.79.66.62,1.43.76,2.36.41,1.4-.52,2.39-1.53,3.01-3.08.16-.39.28-.84.38-1.37.5-2.62.64-5.31.71-7.83.02-.75.06-1.49.09-2.24.04-.86.08-1.73.1-2.59.02-.82,0-1.67,0-2.48,0-.33,0-.66-.01-1l-.02-1.65c-.02-1.71-.03-3.42-.06-5.13-.01-.9-.04-1.79-.07-2.69-.01-.47-.03-.95-.04-1.42v-.2c-.02-.35-.03-.7-.02-1.05.02-.71.48-1.2,1.19-1.29.32-.04.63-.04.93-.04.64,0,1.28,0,1.92,0h.51s.1,0,.1,0c.15,0,.31,0,.46.01,1.27.12,1.77.68,1.73,1.92Z"/><path class="cls-1" d="m91.75,230.6c-.02.78-.3,1.12-1.08,1.31-.4.1-.92.21-1.46.22-.95.02-1.91.02-2.84.01h-1.75v-.03c-.18,0-.37,0-.55,0-.93,0-1.88,0-2.82.01-.58.01-1.34.03-2.07.03-.91,0-1.75-.02-2.08-.09-.74-.16-1.1-.67-.99-1.4.2-1.36.16-2.71.11-4.14,0-.27-.02-.54-.03-.81-.02-.77-.06-1.53-.09-2.3-.03-.54-.05-1.08-.07-1.62-.01-.31-.01-.62-.01-.92,0-.25,0-.49,0-.74-.02-.69-.04-1.38-.06-2.07-.03-1.14-.07-2.28-.09-3.42-.01-.65-.01-1.29-.01-1.94,0-.56,0-1.12,0-1.68,0-.37-.03-.74-.05-1.11-.02-.31-.04-.63-.04-.94-.02-.6-.04-1.39-.03-2.19,0-.67.02-1.33.03-2,.02-.95.04-1.89.04-2.84,0-1.08,0-2.22-.1-3.35-.06-.75.09-1.29.47-1.66.36-.36.89-.51,1.58-.45.31.03.62.03.94.04.33,0,.67.01,1.02.04.92.08,1.3.51,1.29,1.45,0,.58-.02,1.16-.03,1.74-.01.65-.03,1.31-.03,1.96,0,.4,0,.79,0,1.19,0,.32.01.65.01.97,0,.26,0,.52-.02.79-.02.46-.03.9,0,1.33.04.54.04,1.08.03,1.6,0,.44,0,.86.02,1.29.04.77.04,1.55.04,2.31,0,.41,0,.82,0,1.23v.72c.02.84.03,1.71.08,2.56.15,2.4.25,4.83.35,7.19.05,1.25.11,2.51.17,3.76,0,.14.02.44.05.59.1.02.29.02.57.02.69-.01,1.4-.06,2.09-.11.56-.04,1.14-.08,1.71-.1,1.42-.05,2.81-.06,4.36-.07.86,0,1.33.46,1.35,1.32.02.83.01,1.58,0,2.3Z"/><path class="cls-1" d="m113.13,231.42c.02.63-.34,1.08-.94,1.17-.1.01-.19.04-.29.06-.26.06-.55.12-.87.09-1.16-.09-2.36-.07-3.51-.06-.54,0-1.07.01-1.6.01-.5,0-1.01.05-1.55.1-.22.02-.44.04-.67.06-.07,0-.14.02-.21.03-.13.02-.28.05-.45.05-1.25,0-2.5.01-3.75.02h-.8s-.08,0-.08,0c-.12,0-.22,0-.32-.02-.73-.1-1.17-.52-1.3-1.26-.04-.26-.05-.51-.05-.72v-.95c-.03-1.22-.05-2.48-.02-3.72.02-.77-.02-1.57-.05-2.34-.02-.48-.05-.97-.06-1.45-.01-.61,0-1.24,0-1.83,0-.29,0-.58,0-.87v-.18c0-.13,0-.25,0-.35-.21-1.66-.22-3.33-.22-4.95v-.59c-.02-2.48-.04-4.96-.08-7.44-.01-.87-.03-1.75-.05-2.62-.01-.67-.03-1.34-.04-2.02-.01-.78-.02-1.56-.02-2.34v-.36c0-.2,0-.41.04-.64.19-.98.55-1.3,1.55-1.36,2.3-.14,4.76-.27,7.75-.43.95-.05,1.71-.07,2.41-.06,1.04.01,2.06.07,2.92.12.8.05,1.25.44,1.38,1.2.14.8.12,1.65-.05,2.59-.1.58-.57.95-1.17.93-.39,0-.78,0-1.17,0-.64,0-1.3,0-1.95-.04-1.5-.08-3.03.02-4.51.12h-.15c-.16.02-.32.03-.48.04-.39.02-.77.04-1.14.09,0,0-.01,0-.02,0,0,0,0,.02,0,.03-.04.25-.05.5-.06.74-.02,1.44-.03,2.89-.04,4.33,0,1.03,0,2.06.02,3.09,0,.02,0,.04,0,.07.2,0,.38,0,.56-.02.63-.05,1.25-.1,1.88-.16.71-.06,1.42-.12,2.14-.18.35-.03.75-.06,1.15-.02.76.08,1.24.56,1.31,1.31.07.73.11,1.49.13,2.32.01.73-.44,1.27-1.15,1.38h-.06c-.33.06-.67.11-1.02.13-1.02.05-2.05.1-3.07.14l-1.17.05c-.22.04-.44.08-.57.12,0,.11,0,.3,0,.46.01,1.2.01,2.4,0,3.43v1.07s.42,7.04.42,7.04c.02.29.03.57.06.85.52.01,1.01.01,1.48,0,1.32-.03,2.64-.07,3.96-.11,1.3-.04,2.59-.07,3.89-.11.36,0,1.44-.04,1.55,1.34.05.62.06,1.25.07,1.85,0,.25,0,.5.02.76Z"/><path class="cls-1" d="m134.52,226.21c-.58,2.55-2.2,4.18-2.88,4.77-1.45,1.26-4.34,1.6-5.93,1.6-.05,0-.09,0-.14,0-.29,0-2.74-.27-4.27-1.23-.38-.24-.73-.52-1.05-.79-1.08-.89-1.66-2.08-2.2-3.32-.61-1.39-.89-2.97-.87-4.85,0-.43.1-1.71.29-2.74.2-1.07.7-1.99,1.18-2.88l.08-.15c.3-.56.86-.81,1.5-.66,1.3.29,2.38.96,3.2,1.98.35.43.41.97.18,1.46l-.05.11c-.09.2-.19.4-.3.59-.73,1.26-.75,2.47-.64,3.56.04.42.17.87.35,1.38.3.87.59,1.52,1.06,1.83.54.37,1.09.51,1.74.68l.06.02c.61.16,1.49-.19,1.93-.61.48-.46.81-.96,1.03-1.55.58-1.58.55-3.18-.09-4.92-.2-.54-.53-1.05-.88-1.59-.13-.21-.27-.42-.4-.63-.58-.96-1.28-1.82-2.02-2.72-.49-.59-.99-1.21-1.45-1.85-.32-.44-.64-.88-.96-1.32-.69-.94-1.4-1.91-2.06-2.9-1.04-1.57-1.57-3.2-1.57-4.82,0-2.31.73-4.17,2.17-5.53.69-.65.91-.81,1.65-1.31.26-.17,1.15-.52,1.4-.58.63-.16,2.54-.34,3.77-.11,1.85.35,3.18,1.12,4.08,2.37,1.03,1.43,1.66,2.94,1.92,4.62.23,1.45.37,1.91.28,2.99-.11,1.4-.37,1.78-1.92,1.71-.77-.04-1.69-.08-2.6-.15-.3-.02-.68-.09-.94-.39-.25-.3-.25-.68-.22-.97.04-.34.02-.39.07-.73.05-.34,0-.24.04-.58.09-.87,0-1.4-.17-2.12-.16-.7-.51-1.17-1.11-1.48-.63-.32-1.34-.23-1.85.25-.69.64-.96,1.35-.87,2.23.1.94.38,1.69.86,2.38.57.81,1.17,1.56,1.82,2.28.56.63,1.09,1.3,1.6,1.94.28.35.55.7.83,1.04.35.43.73.87,1.12,1.28,1.5,1.54,2.59,3.42,3.25,5.58.76,2.5.4,4.86-.05,6.83Z"/></svg>